<svg xmlns="http://www.w3.org/2000/svg" version="1.0" width="200.000000pt" height="200.000000pt" viewBox="0 0 200.000000 200.000000" preserveAspectRatio="xMidYMid meet">

<g transform="translate(0.000000,200.000000) scale(0.100000,-0.100000)" fill="#fff" stroke="none">
<path d="M0 1000 l0 -1000 1000 0 1000 0 0 1000 0 1000 -1000 0 -1000 0 0 -1000z m1143 263 c13 -21 34 -57 46 -79 l23 -42 -73 -127 c-40 -70 -78 -129 -85 -132 -6 -2 -39 -3 -72 -1 l-62 3 74 130 c58 101 72 133 65 147 -9 16 -26 18 -162 18 l-152 0 -33 60 -33 60 220 0 221 0 23 -37z m226 -18 c17 -30 31 -57 31 -60 0 -3 -31 -5 -69 -5 l-69 0 -35 60 -36 60 73 0 74 0 31 -55z m-391 -134 c-1 -5 -55 -99 -118 -210 l-115 -201 -73 0 c-40 0 -71 3 -69 8 2 4 57 98 121 210 l118 202 70 0 c38 0 68 -4 66 -9z m430 1 c-16 -39 -234 -405 -243 -408 -7 -3 -40 -4 -74 -2 l-61 3 66 115 c37 63 91 157 121 208 l54 92 70 0 c39 0 69 -4 67 -8z"/>
</g>
</svg>